<svg width="549.502" height="73.905" viewBox="0 0 549.502 73.905" xmlns="http://www.w3.org/2000/svg"><g id="svgGroup" stroke-linecap="round" fill-rule="evenodd" font-size="9pt" stroke="#000" stroke-width="0.25mm" fill="#000" style="stroke:#000;stroke-width:0.25mm;fill:#000"><path d="M 95.902 72.702 L 91.302 72.702 L 91.302 7.402 L 93.502 7.402 L 136.102 56.402 A 95.695 95.695 0 0 1 139.609 60.594 A 85.082 85.082 0 0 1 140.352 61.552 A 915.096 915.096 0 0 0 140.811 62.152 Q 142.315 64.115 142.402 64.202 A 34.894 34.894 0 0 1 142.324 62.932 Q 142.231 60.895 142.209 57.212 A 406.358 406.358 0 0 1 142.202 54.802 L 142.202 7.802 L 146.802 7.802 L 146.802 73.102 L 144.602 73.102 L 101.202 23.302 L 95.702 16.602 A 21.228 21.228 0 0 1 95.77 17.542 Q 95.902 19.99 95.902 26.002 L 95.902 72.702 Z M 285.402 72.702 L 280.802 72.702 L 280.802 7.402 L 283.002 7.402 L 325.602 56.402 A 95.695 95.695 0 0 1 329.109 60.594 A 85.082 85.082 0 0 1 329.852 61.552 A 915.096 915.096 0 0 0 330.311 62.152 Q 331.815 64.115 331.902 64.202 A 34.894 34.894 0 0 1 331.824 62.932 Q 331.731 60.895 331.709 57.212 A 406.358 406.358 0 0 1 331.702 54.802 L 331.702 7.802 L 336.302 7.802 L 336.302 73.102 L 334.102 73.102 L 290.702 23.302 L 285.202 16.602 A 21.228 21.228 0 0 1 285.27 17.542 Q 285.402 19.99 285.402 26.002 L 285.402 72.702 Z M 498.602 72.702 L 494.002 72.702 L 494.002 7.402 L 496.202 7.402 L 538.802 56.402 A 95.695 95.695 0 0 1 542.309 60.594 A 85.082 85.082 0 0 1 543.052 61.552 A 915.096 915.096 0 0 0 543.511 62.152 Q 545.015 64.115 545.102 64.202 A 34.894 34.894 0 0 1 545.024 62.932 Q 544.931 60.895 544.909 57.212 A 406.358 406.358 0 0 1 544.902 54.802 L 544.902 7.802 L 549.502 7.802 L 549.502 73.102 L 547.302 73.102 L 503.902 23.302 L 498.402 16.602 A 21.228 21.228 0 0 1 498.47 17.542 Q 498.602 19.99 498.602 26.002 L 498.602 72.702 Z M 352.702 68.702 L 355.102 65.202 A 26.852 26.852 0 0 0 363.232 68.984 A 24.184 24.184 0 0 0 369.502 69.802 Q 374.653 69.802 378.265 68.333 A 13.665 13.665 0 0 0 381.352 66.602 A 10.33 10.33 0 0 0 385.535 59.022 A 14.582 14.582 0 0 0 385.602 57.602 A 11.581 11.581 0 0 0 383.476 50.967 A 16.914 16.914 0 0 0 381.302 48.402 Q 378.302 45.402 373.252 41.902 Q 368.202 38.402 366.202 36.852 Q 364.831 35.79 363.131 34.234 A 88.452 88.452 0 0 1 361.502 32.702 Q 356.402 27.602 356.402 20.902 A 15.14 15.14 0 0 1 357.098 16.198 A 12.084 12.084 0 0 1 361.152 10.402 A 16.006 16.006 0 0 1 366.61 7.613 Q 369.971 6.602 374.302 6.602 A 36.728 36.728 0 0 1 383.214 7.647 A 30.857 30.857 0 0 1 389.402 9.902 L 387.702 13.602 A 29.611 29.611 0 0 0 379.21 11.024 A 38.561 38.561 0 0 0 373.402 10.602 Q 368.529 10.602 365.285 12.719 A 11.201 11.201 0 0 0 364.602 13.202 A 8.42 8.42 0 0 0 361.255 19.36 A 11.979 11.979 0 0 0 361.202 20.502 A 12.408 12.408 0 0 0 363.949 28.269 A 17.501 17.501 0 0 0 365.702 30.202 A 47.275 47.275 0 0 0 368.607 32.779 Q 370.22 34.102 372.142 35.484 A 91.567 91.567 0 0 0 373.952 36.752 Q 379.002 40.202 380.902 41.702 A 41.586 41.586 0 0 1 382.303 42.864 Q 383.017 43.48 383.816 44.215 A 98.657 98.657 0 0 1 385.502 45.802 A 17.381 17.381 0 0 1 388.916 50.507 A 14.934 14.934 0 0 1 390.402 57.102 A 19.699 19.699 0 0 1 389.776 62.222 A 13.503 13.503 0 0 1 384.852 69.652 A 18.789 18.789 0 0 1 378.801 72.667 Q 376.248 73.439 373.195 73.729 A 40.744 40.744 0 0 1 369.352 73.902 A 31.482 31.482 0 0 1 361.535 72.977 A 23.881 23.881 0 0 1 352.702 68.702 Z M 9.952 63.202 Q 0.002 52.502 0.002 36.902 A 40.394 40.394 0 0 1 2.337 22.951 A 35.929 35.929 0 0 1 9.952 10.652 A 32.718 32.718 0 0 1 33.689 0.026 A 42.362 42.362 0 0 1 35.102 0.002 A 35.515 35.515 0 0 1 48.607 2.501 A 33.015 33.015 0 0 1 60.302 10.652 A 36.584 36.584 0 0 1 70.276 35.331 A 47.526 47.526 0 0 1 70.302 36.902 A 40.22 40.22 0 0 1 67.88 51.072 A 36.161 36.161 0 0 1 60.302 63.202 A 32.813 32.813 0 0 1 36.516 73.879 A 42.174 42.174 0 0 1 35.102 73.902 A 35.285 35.285 0 0 1 21.621 71.397 A 32.798 32.798 0 0 1 9.952 63.202 Z M 214.783 71.045 A 32.723 32.723 0 0 0 228.102 73.702 A 39.245 39.245 0 0 0 228.966 73.693 A 31.022 31.022 0 0 0 251.402 64.002 Q 260.802 54.302 260.802 40.252 Q 260.802 26.202 251.402 16.502 A 31.517 31.517 0 0 0 241.421 9.46 A 32.723 32.723 0 0 0 228.102 6.802 A 39.245 39.245 0 0 0 227.238 6.812 A 31.022 31.022 0 0 0 204.802 16.502 Q 195.402 26.202 195.402 40.252 Q 195.402 54.302 204.802 64.002 A 31.517 31.517 0 0 0 214.783 71.045 Z M 13.502 13.752 A 32.694 32.694 0 0 0 5.366 33.109 A 42.975 42.975 0 0 0 5.202 36.902 Q 5.202 50.702 13.552 60.102 A 27.275 27.275 0 0 0 33.502 69.465 A 36.095 36.095 0 0 0 35.152 69.502 A 30.383 30.383 0 0 0 45.981 67.638 A 27.114 27.114 0 0 0 56.752 60.102 A 32.879 32.879 0 0 0 64.972 40.284 A 43.05 43.05 0 0 0 65.102 36.902 A 37.628 37.628 0 0 0 63.328 25.126 A 31.75 31.75 0 0 0 56.752 13.752 A 27.381 27.381 0 0 0 36.745 4.439 A 36.563 36.563 0 0 0 35.102 4.402 A 30.703 30.703 0 0 0 24.422 6.192 A 26.874 26.874 0 0 0 13.502 13.752 Z M 442.702 7.802 L 448.202 7.802 L 420.502 39.102 A 807.681 807.681 0 0 0 427.182 47.11 Q 436.203 57.772 441.009 62.487 A 47.738 47.738 0 0 0 442.952 64.302 A 30.844 30.844 0 0 0 447.294 67.518 Q 451.158 69.854 455.002 70.302 L 454.902 73.402 A 34.743 34.743 0 0 1 451.3 73.162 Q 448.099 72.77 445.802 71.752 Q 442.302 70.202 439.602 67.602 A 45.496 45.496 0 0 1 438.373 66.362 Q 435.36 63.221 428.584 55.462 A 1074.974 1074.974 0 0 1 428.052 54.852 Q 421.276 47.081 417.109 42.095 A 294.049 294.049 0 0 1 414.802 39.302 L 442.702 7.802 Z M 228.152 10.902 A 27.966 27.966 0 0 0 217.284 12.962 A 26.3 26.3 0 0 0 208.152 19.402 A 29.226 29.226 0 0 0 200.211 39.437 A 37.785 37.785 0 0 0 200.202 40.252 A 31.679 31.679 0 0 0 202.128 51.465 A 28.51 28.51 0 0 0 208.152 61.052 A 26.156 26.156 0 0 0 227.217 69.49 A 33.698 33.698 0 0 0 228.152 69.502 A 28.089 28.089 0 0 0 238.842 67.524 A 26.053 26.053 0 0 0 248.102 61.052 A 29.063 29.063 0 0 0 255.982 41.497 A 37.709 37.709 0 0 0 256.002 40.252 A 31.897 31.897 0 0 0 254.035 28.885 A 28.794 28.794 0 0 0 248.102 19.402 A 25.9 25.9 0 0 0 229.273 10.921 A 33.36 33.36 0 0 0 228.152 10.902 Z M 175.402 72.702 L 170.802 72.702 L 170.802 7.802 L 175.402 7.802 L 175.402 72.702 Z M 408.802 7.802 L 413.402 7.802 L 413.402 72.702 L 408.802 72.702 L 408.802 7.802 Z M 470.002 72.702 L 465.402 72.702 L 465.402 7.802 L 470.002 7.802 L 470.002 72.702 Z" vector-effect="non-scaling-stroke"/></g></svg>