<?xml version="1.0" encoding="UTF-8" standalone="no"?>
<svg
   xmlns:dc="http://purl.org/dc/elements/1.1/"
   xmlns:cc="http://creativecommons.org/ns#"
   xmlns:rdf="http://www.w3.org/1999/02/22-rdf-syntax-ns#"
   xmlns:svg="http://www.w3.org/2000/svg"
   xmlns="http://www.w3.org/2000/svg"
   xmlns:sodipodi="http://sodipodi.sourceforge.net/DTD/sodipodi-0.dtd"
   xmlns:inkscape="http://www.inkscape.org/namespaces/inkscape"
   width="74.81955mm"
   height="11.901998mm"
   viewBox="0 0 149.63909 23.803996"
   version="1.1"
   id="svg850"
   inkscape:version="1.0 (4035a4f, 2020-05-01)"
   sodipodi:docname="logo.svg">
  <defs
     id="defs844" />
  <sodipodi:namedview
     fit-margin-bottom="1"
     fit-margin-right="1"
     fit-margin-top="1"
     fit-margin-left="1"
     id="base"
     pagecolor="#ffffff"
     bordercolor="#666666"
     borderopacity="1.0"
     inkscape:pageopacity="0.0"
     inkscape:pageshadow="2"
     inkscape:zoom="1.979899"
     inkscape:cx="127.84175"
     inkscape:cy="115.49011"
     inkscape:document-units="mm"
     inkscape:current-layer="layer1"
     inkscape:document-rotation="0"
     showgrid="false"
     inkscape:window-width="1251"
     inkscape:window-height="1140"
     inkscape:window-x="69"
     inkscape:window-y="89"
     inkscape:window-maximized="0" />
  <metadata
     id="metadata847">
    <rdf:RDF>
      <cc:Work
         rdf:about="">
        <dc:format>image/svg+xml</dc:format>
        <dc:type
           rdf:resource="http://purl.org/dc/dcmitype/StillImage" />
        <dc:title></dc:title>
      </cc:Work>
    </rdf:RDF>
  </metadata>
  <g
     inkscape:label="Layer 1"
     inkscape:groupmode="layer"
     id="layer1"
     transform="translate(-26.478073,-86.371813)">
    <g
       style="fill:#000000;stroke:#000000;stroke-width:0.25mm;image-rendering:auto"
       fill="#000"
       stroke-width="0.25mm"
       stroke="#000"
       font-size="12px"
       fill-rule="evenodd"
       stroke-linecap="round"
       id="svgGroup"
       transform="matrix(0.26458333,0,0,0.26458333,28.603096,88.496917)">
      <path
         id="path833"
         vector-effect="non-scaling-stroke"
         d="m 95.902,72.702 h -4.6 v -65.3 h 2.2 l 42.6,49 a 95.695,95.695 0 0 1 3.507,4.192 85.082,85.082 0 0 1 0.743,0.958 915.096,915.096 0 0 0 0.459,0.6 q 1.504,1.963 1.591,2.05 a 34.894,34.894 0 0 1 -0.078,-1.27 q -0.093,-2.037 -0.115,-5.72 a 406.358,406.358 0 0 1 -0.007,-2.41 v -47 h 4.6 v 65.3 h -2.2 l -43.4,-49.8 -5.5,-6.7 a 21.228,21.228 0 0 1 0.068,0.94 q 0.132,2.448 0.132,8.46 z m 189.5,0 h -4.6 v -65.3 h 2.2 l 42.6,49 a 95.695,95.695 0 0 1 3.507,4.192 85.082,85.082 0 0 1 0.743,0.958 915.096,915.096 0 0 0 0.459,0.6 q 1.504,1.963 1.591,2.05 a 34.894,34.894 0 0 1 -0.078,-1.27 q -0.093,-2.037 -0.115,-5.72 a 406.358,406.358 0 0 1 -0.007,-2.41 v -47 h 4.6 v 65.3 h -2.2 l -43.4,-49.8 -5.5,-6.7 a 21.228,21.228 0 0 1 0.068,0.94 q 0.132,2.448 0.132,8.46 z m 213.2,0 h -4.6 v -65.3 h 2.2 l 42.6,49 a 95.695,95.695 0 0 1 3.507,4.192 85.082,85.082 0 0 1 0.743,0.958 915.096,915.096 0 0 0 0.459,0.6 q 1.504,1.963 1.591,2.05 a 34.894,34.894 0 0 1 -0.078,-1.27 q -0.093,-2.037 -0.115,-5.72 a 406.358,406.358 0 0 1 -0.007,-2.41 v -47 h 4.6 v 65.3 h -2.2 l -43.4,-49.8 -5.5,-6.7 a 21.228,21.228 0 0 1 0.068,0.94 q 0.132,2.448 0.132,8.46 z m -145.9,-4 2.4,-3.5 a 26.852,26.852 0 0 0 8.13,3.782 24.184,24.184 0 0 0 6.27,0.818 q 5.151,0 8.763,-1.469 a 13.665,13.665 0 0 0 3.087,-1.731 10.33,10.33 0 0 0 4.183,-7.58 14.582,14.582 0 0 0 0.067,-1.42 11.581,11.581 0 0 0 -2.126,-6.635 16.914,16.914 0 0 0 -2.174,-2.565 q -3,-3 -8.05,-6.5 -5.05,-3.5 -7.05,-5.05 -1.371,-1.062 -3.071,-2.618 a 88.452,88.452 0 0 1 -1.629,-1.532 q -5.1,-5.1 -5.1,-11.8 a 15.14,15.14 0 0 1 0.696,-4.704 12.084,12.084 0 0 1 4.054,-5.796 16.006,16.006 0 0 1 5.458,-2.789 q 3.361,-1.011 7.692,-1.011 a 36.728,36.728 0 0 1 8.912,1.045 30.857,30.857 0 0 1 6.188,2.255 l -1.7,3.7 a 29.611,29.611 0 0 0 -8.492,-2.578 38.561,38.561 0 0 0 -5.808,-0.422 q -4.873,0 -8.117,2.117 a 11.201,11.201 0 0 0 -0.683,0.483 8.42,8.42 0 0 0 -3.347,6.158 11.979,11.979 0 0 0 -0.053,1.142 12.408,12.408 0 0 0 2.747,7.767 17.501,17.501 0 0 0 1.753,1.933 47.275,47.275 0 0 0 2.905,2.577 q 1.613,1.323 3.535,2.705 a 91.567,91.567 0 0 0 1.81,1.268 q 5.05,3.45 6.95,4.95 a 41.586,41.586 0 0 1 1.401,1.162 q 0.714,0.616 1.513,1.351 a 98.657,98.657 0 0 1 1.686,1.587 17.381,17.381 0 0 1 3.414,4.705 14.934,14.934 0 0 1 1.486,6.595 19.699,19.699 0 0 1 -0.626,5.12 13.503,13.503 0 0 1 -4.924,7.43 18.789,18.789 0 0 1 -6.051,3.015 q -2.553,0.772 -5.606,1.062 a 40.744,40.744 0 0 1 -3.843,0.173 31.482,31.482 0 0 1 -7.817,-0.925 23.881,23.881 0 0 1 -8.833,-4.275 z m -342.75,-5.5 q -9.95,-10.7 -9.95,-26.3 A 40.394,40.394 0 0 1 2.337,22.951 35.929,35.929 0 0 1 9.952,10.652 32.718,32.718 0 0 1 33.689,0.026 a 42.362,42.362 0 0 1 1.413,-0.024 35.515,35.515 0 0 1 13.505,2.499 33.015,33.015 0 0 1 11.695,8.151 36.584,36.584 0 0 1 9.974,24.679 47.526,47.526 0 0 1 0.026,1.571 40.22,40.22 0 0 1 -2.422,14.17 36.161,36.161 0 0 1 -7.578,12.13 A 32.813,32.813 0 0 1 36.516,73.879 42.174,42.174 0 0 1 35.102,73.902 35.285,35.285 0 0 1 21.621,71.397 32.798,32.798 0 0 1 9.952,63.202 Z m 204.831,7.843 a 32.723,32.723 0 0 0 13.319,2.657 39.245,39.245 0 0 0 0.864,-0.009 31.022,31.022 0 0 0 22.436,-9.691 q 9.4,-9.7 9.4,-23.75 0,-14.05 -9.4,-23.75 a 31.517,31.517 0 0 0 -9.981,-7.042 32.723,32.723 0 0 0 -13.319,-2.658 39.245,39.245 0 0 0 -0.864,0.01 31.022,31.022 0 0 0 -22.436,9.69 q -9.4,9.7 -9.4,23.75 0,14.05 9.4,23.75 a 31.517,31.517 0 0 0 9.981,7.043 z M 13.502,13.752 A 32.694,32.694 0 0 0 5.366,33.109 42.975,42.975 0 0 0 5.202,36.902 q 0,13.8 8.35,23.2 a 27.275,27.275 0 0 0 19.95,9.363 36.095,36.095 0 0 0 1.65,0.037 30.383,30.383 0 0 0 10.829,-1.864 27.114,27.114 0 0 0 10.771,-7.536 32.879,32.879 0 0 0 8.22,-19.818 43.05,43.05 0 0 0 0.13,-3.382 A 37.628,37.628 0 0 0 63.328,25.126 31.75,31.75 0 0 0 56.752,13.752 27.381,27.381 0 0 0 36.745,4.439 36.563,36.563 0 0 0 35.102,4.402 a 30.703,30.703 0 0 0 -10.68,1.79 26.874,26.874 0 0 0 -10.92,7.56 z m 429.2,-5.95 h 5.5 l -27.7,31.3 a 807.681,807.681 0 0 0 6.68,8.008 q 9.021,10.662 13.827,15.377 a 47.738,47.738 0 0 0 1.943,1.815 30.844,30.844 0 0 0 4.342,3.216 q 3.864,2.336 7.708,2.784 l -0.1,3.1 a 34.743,34.743 0 0 1 -3.602,-0.24 q -3.201,-0.392 -5.498,-1.41 -3.5,-1.55 -6.2,-4.15 a 45.496,45.496 0 0 1 -1.229,-1.24 q -3.013,-3.141 -9.789,-10.9 a 1074.974,1074.974 0 0 1 -0.532,-0.61 q -6.776,-7.771 -10.943,-12.757 a 294.049,294.049 0 0 1 -2.307,-2.793 z m -214.55,3.1 a 27.966,27.966 0 0 0 -10.868,2.06 26.3,26.3 0 0 0 -9.132,6.44 29.226,29.226 0 0 0 -7.941,20.035 37.785,37.785 0 0 0 -0.009,0.815 31.679,31.679 0 0 0 1.926,11.213 28.51,28.51 0 0 0 6.024,9.587 26.156,26.156 0 0 0 19.065,8.438 33.698,33.698 0 0 0 0.935,0.012 28.089,28.089 0 0 0 10.69,-1.978 26.053,26.053 0 0 0 9.26,-6.472 29.063,29.063 0 0 0 7.88,-19.555 37.709,37.709 0 0 0 0.02,-1.245 31.897,31.897 0 0 0 -1.967,-11.367 28.794,28.794 0 0 0 -5.933,-9.483 25.9,25.9 0 0 0 -18.829,-8.481 33.36,33.36 0 0 0 -1.121,-0.019 z m -52.75,61.8 h -4.6 v -64.9 h 4.6 z m 233.4,-64.9 h 4.6 v 64.9 h -4.6 z m 61.2,64.9 h -4.6 v -64.9 h 4.6 z" />
    </g>
  </g>
</svg>
